<svg width="21" height="16" viewBox="0 0 21 16" fill="none" xmlns="http://www.w3.org/2000/svg">
<path d="M17.886 0H3.88599C3.09034 0 2.32728 0.316071 1.76467 0.87868C1.20206 1.44129 0.885986 2.20435 0.885986 3V13C0.885986 13.7956 1.20206 14.5587 1.76467 15.1213C2.32728 15.6839 3.09034 16 3.88599 16H17.886C18.6816 16 19.4447 15.6839 20.0073 15.1213C20.5699 14.5587 20.886 13.7956 20.886 13V3C20.886 2.20435 20.5699 1.44129 20.0073 0.87868C19.4447 0.316071 18.6816 0 17.886 0ZM17.216 2L10.886 6.75L4.55599 2H17.216ZM17.886 14H3.88599C3.62077 14 3.36642 13.8946 3.17888 13.7071C2.99134 13.5196 2.88599 13.2652 2.88599 13V3.25L10.286 8.8C10.4591 8.92982 10.6696 9 10.886 9C11.1024 9 11.3129 8.92982 11.486 8.8L18.886 3.25V13C18.886 13.2652 18.7806 13.5196 18.5931 13.7071C18.4056 13.8946 18.1512 14 17.886 14Z" fill="white"/>
</svg>
