<svg width="2363" height="448" viewBox="0 0 2363 448" fill="none" xmlns="http://www.w3.org/2000/svg">
	<path d="M1099.77 119.552V323H1073.01V171.296L1005.39 323H986.577L918.663 171.002V323H891.909V119.552H920.721L995.985 287.72L1071.25 119.552H1099.77ZM1145.14 241.856C1145.14 225.392 1148.47 210.986 1155.14 198.638C1161.8 186.094 1170.92 176.392 1182.48 169.532C1194.24 162.672 1207.27 159.242 1221.58 159.242C1235.69 159.242 1247.94 162.28 1258.33 168.356C1268.72 174.432 1276.46 182.076 1281.56 191.288V161.888H1308.61V323H1281.56V293.012C1276.27 302.42 1268.33 310.26 1257.74 316.532C1247.36 322.608 1235.2 325.646 1221.29 325.646C1206.98 325.646 1194.04 322.118 1182.48 315.062C1170.92 308.006 1161.8 298.108 1155.14 285.368C1148.47 272.628 1145.14 258.124 1145.14 241.856ZM1281.56 242.15C1281.56 229.998 1279.11 219.414 1274.21 210.398C1269.31 201.382 1262.64 194.522 1254.22 189.818C1245.98 184.918 1236.87 182.468 1226.87 182.468C1216.88 182.468 1207.76 184.82 1199.53 189.524C1191.3 194.228 1184.73 201.088 1179.83 210.104C1174.93 219.12 1172.48 229.704 1172.48 241.856C1172.48 254.204 1174.93 264.984 1179.83 274.196C1184.73 283.212 1191.3 290.17 1199.53 295.07C1207.76 299.774 1216.88 302.126 1226.87 302.126C1236.87 302.126 1245.98 299.774 1254.22 295.07C1262.64 290.17 1269.31 283.212 1274.21 274.196C1279.11 264.984 1281.56 254.302 1281.56 242.15ZM1453.78 323L1390.57 251.852V323H1363.82V105.44H1390.57V233.33L1452.61 161.888H1489.94L1414.09 242.15L1490.24 323H1453.78ZM1515.13 241.856C1515.13 225.392 1518.46 210.986 1525.13 198.638C1531.79 186.094 1540.9 176.392 1552.47 169.532C1564.23 162.672 1577.26 159.242 1591.57 159.242C1605.68 159.242 1617.93 162.28 1628.32 168.356C1638.71 174.432 1646.45 182.076 1651.55 191.288V161.888H1678.59V323H1651.55V293.012C1646.25 302.42 1638.32 310.26 1627.73 316.532C1617.34 322.608 1605.19 325.646 1591.28 325.646C1576.97 325.646 1564.03 322.118 1552.47 315.062C1540.9 308.006 1531.79 298.108 1525.13 285.368C1518.46 272.628 1515.13 258.124 1515.13 241.856ZM1651.55 242.15C1651.55 229.998 1649.1 219.414 1644.2 210.398C1639.3 201.382 1632.63 194.522 1624.2 189.818C1615.97 184.918 1606.86 182.468 1596.86 182.468C1586.87 182.468 1577.75 184.82 1569.52 189.524C1561.29 194.228 1554.72 201.088 1549.82 210.104C1544.92 219.12 1542.47 229.704 1542.47 241.856C1542.47 254.204 1544.92 264.984 1549.82 274.196C1554.72 283.212 1561.29 290.17 1569.52 295.07C1577.75 299.774 1586.87 302.126 1596.86 302.126C1606.86 302.126 1615.97 299.774 1624.2 295.07C1632.63 290.17 1639.3 283.212 1644.2 274.196C1649.1 264.984 1651.55 254.302 1651.55 242.15ZM1790.84 325.646C1778.49 325.646 1767.42 323.588 1757.62 319.472C1747.82 315.16 1740.08 309.28 1734.39 301.832C1728.71 294.188 1725.57 285.466 1724.98 275.666H1752.62C1753.4 283.702 1757.13 290.268 1763.79 295.364C1770.65 300.46 1779.57 303.008 1790.55 303.008C1800.74 303.008 1808.78 300.754 1814.66 296.246C1820.54 291.738 1823.48 286.054 1823.48 279.194C1823.48 272.138 1820.34 266.944 1814.07 263.612C1807.79 260.084 1798.09 256.654 1784.96 253.322C1773 250.186 1763.2 247.05 1755.56 243.914C1748.11 240.582 1741.64 235.78 1736.16 229.508C1730.86 223.04 1728.22 214.612 1728.22 204.224C1728.22 195.992 1730.67 188.446 1735.57 181.586C1740.47 174.726 1747.43 169.336 1756.44 165.416C1765.46 161.3 1775.75 159.242 1787.31 159.242C1805.15 159.242 1819.55 163.75 1830.53 172.766C1841.51 181.782 1847.39 194.13 1848.17 209.81H1821.42C1820.83 201.382 1817.4 194.62 1811.13 189.524C1805.05 184.428 1796.82 181.88 1786.43 181.88C1776.83 181.88 1769.18 183.938 1763.5 188.054C1757.81 192.17 1754.97 197.56 1754.97 204.224C1754.97 209.516 1756.64 213.926 1759.97 217.454C1763.5 220.786 1767.81 223.53 1772.91 225.686C1778.2 227.646 1785.45 229.9 1794.66 232.448C1806.23 235.584 1815.63 238.72 1822.89 241.856C1830.14 244.796 1836.31 249.304 1841.41 255.38C1846.7 261.456 1849.44 269.394 1849.64 279.194C1849.64 288.014 1847.19 295.952 1842.29 303.008C1837.39 310.064 1830.43 315.65 1821.42 319.766C1812.6 323.686 1802.4 325.646 1790.84 325.646ZM1954.44 325.646C1942.1 325.646 1931.02 323.588 1921.22 319.472C1911.42 315.16 1903.68 309.28 1898 301.832C1892.31 294.188 1889.18 285.466 1888.59 275.666H1916.22C1917.01 283.702 1920.73 290.268 1927.4 295.364C1934.26 300.46 1943.17 303.008 1954.15 303.008C1964.34 303.008 1972.38 300.754 1978.26 296.246C1984.14 291.738 1987.08 286.054 1987.08 279.194C1987.08 272.138 1983.94 266.944 1977.67 263.612C1971.4 260.084 1961.7 256.654 1948.56 253.322C1936.61 250.186 1926.81 247.05 1919.16 243.914C1911.72 240.582 1905.25 235.78 1899.76 229.508C1894.47 223.04 1891.82 214.612 1891.82 204.224C1891.82 195.992 1894.27 188.446 1899.17 181.586C1904.07 174.726 1911.03 169.336 1920.05 165.416C1929.06 161.3 1939.35 159.242 1950.92 159.242C1968.75 159.242 1983.16 163.75 1994.13 172.766C2005.11 181.782 2010.99 194.13 2011.77 209.81H1985.02C1984.43 201.382 1981 194.62 1974.73 189.524C1968.65 184.428 1960.42 181.88 1950.03 181.88C1940.43 181.88 1932.79 183.938 1927.1 188.054C1921.42 192.17 1918.58 197.56 1918.58 204.224C1918.58 209.516 1920.24 213.926 1923.57 217.454C1927.1 220.786 1931.41 223.53 1936.51 225.686C1941.8 227.646 1949.05 229.9 1958.27 232.448C1969.83 235.584 1979.24 238.72 1986.49 241.856C1993.74 244.796 1999.92 249.304 2005.01 255.38C2010.3 261.456 2013.05 269.394 2013.24 279.194C2013.24 288.014 2010.79 295.952 2005.89 303.008C2000.99 310.064 1994.04 315.65 1985.02 319.766C1976.2 323.686 1966.01 325.646 1954.44 325.646ZM2051.02 241.856C2051.02 225.392 2054.35 210.986 2061.01 198.638C2067.68 186.094 2076.79 176.392 2088.35 169.532C2100.11 162.672 2113.15 159.242 2127.46 159.242C2141.57 159.242 2153.82 162.28 2164.21 168.356C2174.59 174.432 2182.34 182.076 2187.43 191.288V161.888H2214.48V323H2187.43V293.012C2182.14 302.42 2174.2 310.26 2163.62 316.532C2153.23 322.608 2141.08 325.646 2127.16 325.646C2112.85 325.646 2099.92 322.118 2088.35 315.062C2076.79 308.006 2067.68 298.108 2061.01 285.368C2054.35 272.628 2051.02 258.124 2051.02 241.856ZM2187.43 242.15C2187.43 229.998 2184.98 219.414 2180.08 210.398C2175.18 201.382 2168.52 194.522 2160.09 189.818C2151.86 184.918 2142.74 182.468 2132.75 182.468C2122.75 182.468 2113.64 184.82 2105.41 189.524C2097.17 194.228 2090.61 201.088 2085.71 210.104C2080.81 219.12 2078.36 229.704 2078.36 241.856C2078.36 254.204 2080.81 264.984 2085.71 274.196C2090.61 283.212 2097.17 290.17 2105.41 295.07C2113.64 299.774 2122.75 302.126 2132.75 302.126C2142.74 302.126 2151.86 299.774 2160.09 295.07C2168.52 290.17 2175.18 283.212 2180.08 274.196C2184.98 264.984 2187.43 254.302 2187.43 242.15ZM2296.45 188.054C2301.15 178.842 2307.81 171.688 2316.44 166.592C2325.26 161.496 2335.94 158.948 2348.48 158.948V186.584H2341.43C2311.44 186.584 2296.45 202.852 2296.45 235.388V323H2269.69V161.888H2296.45V188.054Z" fill="white" />
	<path d="M160.161 115.73V161.594H77.253V198.05H138.405V241.856H77.253V323H19.629V115.73H160.161ZM317.028 323L252.054 232.154V323H194.43V115.73H252.054V205.106L316.44 115.73H382.884L306.738 216.278L386.706 323H317.028ZM474.2 115.73V235.976C474.2 247.148 476.748 255.772 481.844 261.848C487.136 267.924 495.074 270.962 505.658 270.962C516.242 270.962 524.18 267.924 529.472 261.848C534.96 255.576 537.704 246.952 537.704 235.976V115.73H595.328V235.976C595.328 254.988 591.31 271.256 583.274 284.78C575.238 298.108 564.262 308.202 550.346 315.062C536.626 321.726 521.338 325.058 504.482 325.058C487.626 325.058 472.534 321.726 459.206 315.062C446.074 308.202 435.686 298.108 428.042 284.78C420.594 271.452 416.87 255.184 416.87 235.976V115.73H474.2ZM769.355 216.572C781.507 219.316 791.111 225.392 798.167 234.8C805.419 244.012 809.045 254.596 809.045 266.552C809.045 284.192 802.969 298.01 790.817 308.006C778.665 318.002 761.613 323 739.661 323H637.055V115.73H736.427C757.595 115.73 774.157 120.434 786.113 129.842C798.265 139.25 804.341 152.48 804.341 169.532C804.341 181.684 801.107 191.876 794.639 200.108C788.367 208.144 779.939 213.632 769.355 216.572ZM694.679 198.05H723.785C738.289 198.05 745.541 192.072 745.541 180.116C745.541 167.768 738.289 161.594 723.785 161.594H694.679V198.05ZM728.195 276.548C742.699 276.548 749.951 270.472 749.951 258.32C749.951 252.048 747.991 247.246 744.071 243.914C740.347 240.582 734.957 238.916 727.901 238.916H694.679V276.548H728.195Z" fill="white" />
</svg>
