<svg width="20" height="20" viewBox="0 0 20 20" fill="none" xmlns="http://www.w3.org/2000/svg">
<path d="M13.0219 14.11L14.7019 12.43C14.9282 12.2066 15.2145 12.0536 15.526 11.9897C15.8375 11.9258 16.1609 11.9537 16.4569 12.07L18.5044 12.8875C18.8035 13.0089 19.06 13.2162 19.2415 13.4831C19.423 13.75 19.5214 14.0647 19.5244 14.3875V18.1375C19.5226 18.3571 19.4765 18.5741 19.3887 18.7753C19.3009 18.9766 19.1733 19.158 19.0135 19.3087C18.8537 19.4594 18.6651 19.5761 18.4591 19.652C18.253 19.7278 18.0337 19.7612 17.8144 19.75C3.46689 18.8575 0.571892 6.70753 0.0243924 2.05753C-0.00102292 1.82918 0.0221984 1.59804 0.0925285 1.37931C0.162859 1.16058 0.278704 0.959225 0.432443 0.788483C0.586182 0.61774 0.77433 0.481484 0.98451 0.388679C1.19469 0.295873 1.42214 0.248621 1.65189 0.250031H5.27439C5.59765 0.250987 5.91323 0.348631 6.18054 0.530403C6.44785 0.712174 6.65467 0.96976 6.77439 1.27003L7.59189 3.31753C7.71208 3.61233 7.74275 3.93601 7.68005 4.24814C7.61736 4.56027 7.46409 4.847 7.23939 5.07253L5.55939 6.75253C5.55939 6.75253 6.52689 13.3 13.0219 14.11Z" fill="white"/>
</svg>
